<?xml version="1.0" encoding="UTF-8" standalone="no"?>
<!-- Created with Inkscape (http://www.inkscape.org/) -->

<svg
   xmlns:dc="http://purl.org/dc/elements/1.1/"
   xmlns:cc="http://creativecommons.org/ns#"
   xmlns:rdf="http://www.w3.org/1999/02/22-rdf-syntax-ns#"
   xmlns:svg="http://www.w3.org/2000/svg"
   xmlns="http://www.w3.org/2000/svg"
   xmlns:sodipodi="http://sodipodi.sourceforge.net/DTD/sodipodi-0.dtd"
   xmlns:inkscape="http://www.inkscape.org/namespaces/inkscape"
   width="163.558"
   height="200.493"
   id="svg2"
   version="1.1"
   inkscape:version="0.48.4 r9939"
   sodipodi:docname="Nouveau document 1">
  <defs
     id="defs4" />
  <sodipodi:namedview
     id="base"
     pagecolor="#ffffff"
     bordercolor="#666666"
     borderopacity="1.0"
     inkscape:pageopacity="0.0"
     inkscape:pageshadow="2"
     inkscape:zoom="0.35"
     inkscape:cx="356.779"
     inkscape:cy="-316.89635"
     inkscape:document-units="px"
     inkscape:current-layer="layer1"
     showgrid="false"
     fit-margin-top="0"
     fit-margin-left="0"
     fit-margin-right="0"
     fit-margin-bottom="0"
     inkscape:window-width="1579"
     inkscape:window-height="802"
     inkscape:window-x="2189"
     inkscape:window-y="109"
     inkscape:window-maximized="0" />
  <metadata
     id="metadata7">
    <rdf:RDF>
      <cc:Work
         rdf:about="">
        <dc:format>image/svg+xml</dc:format>
        <dc:type
           rdf:resource="http://purl.org/dc/dcmitype/StillImage" />
        <dc:title></dc:title>
      </cc:Work>
    </rdf:RDF>
  </metadata>
  <g
     inkscape:label="Calque 1"
     inkscape:groupmode="layer"
     id="layer1"
     transform="translate(-18.221,-14.972825)">
    <g
       id="g3196"
       transform="translate(-6.113,-10.397175)"
       style="fill:#ffffff">
      <g
         id="g3112"
         style="fill:#ffffff">
	<path
   id="path3114"
   d="m 63.502,182.863 h -0.54 c -1.962,0 -3.24,-1.224 -3.24,-3.06 v -8.28 c 0,-0.126 0.054,-0.18 0.18,-0.18 h 1.26 c 0.108,0 0.18,0.054 0.18,0.18 v 8.28 c 0,0.899 0.72,1.62 1.62,1.62 h 0.54 c 0.9,0 1.62,-0.721 1.62,-1.62 v -8.28 c 0,-0.126 0.054,-0.18 0.18,-0.18 h 1.26 c 0.108,0 0.18,0.054 0.18,0.18 v 8.28 c 0,1.837 -1.278,3.06 -3.24,3.06 z"
   inkscape:connector-curvature="0"
   style="fill:#ffffff" />

	<path
   id="path3116"
   d="M 78.802,182.684 H 77.65 l -0.162,-0.09 -4.284,-8.082 0.108,7.992 c 0,0.126 -0.054,0.18 -0.18,0.18 h -1.26 c -0.126,0 -0.18,-0.054 -0.18,-0.18 v -10.98 c 0,-0.126 0.054,-0.18 0.18,-0.18 h 1.152 l 0.162,0.09 4.266,8.064 -0.09,-7.975 c 0,-0.126 0.054,-0.18 0.18,-0.18 h 1.26 c 0.126,0 0.18,0.054 0.18,0.18 v 10.98 c 0,0.127 -0.054,0.181 -0.18,0.181 z"
   inkscape:connector-curvature="0"
   style="fill:#ffffff" />

	<path
   id="path3118"
   d="m 85.084,182.684 h -1.26 c -0.126,0 -0.18,-0.054 -0.18,-0.18 v -10.98 c 0,-0.126 0.054,-0.18 0.18,-0.18 h 1.26 c 0.108,0 0.18,0.054 0.18,0.18 v 10.98 c 0,0.126 -0.054,0.18 -0.18,0.18 z"
   inkscape:connector-curvature="0"
   style="fill:#ffffff" />

	<path
   id="path3120"
   d="m 93.85,182.558 c -0.036,0.09 -0.09,0.126 -0.18,0.126 h -0.972 c -0.09,0 -0.144,-0.036 -0.18,-0.126 L 89.17,171.579 c 0,-0.037 -0.018,-0.055 -0.018,-0.072 0,-0.108 0.072,-0.162 0.198,-0.162 h 1.35 c 0.108,0 0.162,0.035 0.18,0.126 l 2.34,8.244 2.268,-8.244 c 0.018,-0.091 0.072,-0.126 0.18,-0.126 h 1.35 c 0.126,0 0.198,0.054 0.198,0.162 0,0.018 -0.018,0.054 -0.018,0.072 l -3.348,10.979 z"
   inkscape:connector-curvature="0"
   style="fill:#ffffff" />

	<path
   id="path3122"
   d="m 107.404,182.684 h -6.12 c -0.126,0 -0.18,-0.054 -0.18,-0.18 v -10.98 c 0,-0.126 0.054,-0.18 0.18,-0.18 h 6.12 c 0.107,0 0.18,0.054 0.18,0.18 v 1.08 c 0,0.126 -0.054,0.18 -0.18,0.18 h -4.5 c -0.126,0 -0.18,0.055 -0.18,0.18 v 3.061 c 0,0.126 0.054,0.18 0.18,0.18 h 3.69 c 0.127,0 0.18,0.055 0.18,0.181 v 1.08 c 0,0.126 -0.053,0.18 -0.18,0.18 h -3.69 c -0.126,0 -0.18,0.054 -0.18,0.18 v 3.24 c 0,0.126 0.054,0.18 0.18,0.18 h 4.5 c 0.107,0 0.18,0.055 0.18,0.181 v 1.08 c -0.001,0.123 -0.054,0.177 -0.18,0.177 z"
   inkscape:connector-curvature="0"
   style="fill:#ffffff" />

	<path
   id="path3124"
   d="m 119.392,182.54 c 0,0.09 -0.072,0.144 -0.181,0.144 h -1.386 l -0.162,-0.126 -1.674,-4.806 -0.145,-0.108 h -1.781 c -0.127,0 -0.181,0.054 -0.181,0.18 v 4.681 c 0,0.126 -0.054,0.18 -0.18,0.18 h -1.261 c -0.125,0 -0.18,-0.054 -0.18,-0.18 v -10.98 c 0,-0.126 0.055,-0.18 0.18,-0.18 h 3.601 c 1.979,0 3.24,1.26 3.24,3.24 v 0.18 c 0,0.63 -0.343,1.404 -1.026,2.052 -0.324,0.306 -0.648,0.36 -0.648,0.54 0,0.019 0,0.036 0.019,0.054 l 1.746,5.04 c 0.019,0.034 0.019,0.053 0.019,0.089 z m -1.728,-8.137 c 0,-0.899 -0.721,-1.62 -1.62,-1.62 h -1.979 c -0.127,0 -0.181,0.055 -0.181,0.18 v 3.061 c 0,0.126 0.054,0.18 0.181,0.18 h 1.979 c 0.899,0 1.62,-0.72 1.62,-1.619 v -0.182 z"
   inkscape:connector-curvature="0"
   style="fill:#ffffff" />

	<path
   id="path3126"
   d="m 124.953,174.224 c 0,0.972 0.883,1.313 2.341,1.998 1.907,0.882 2.808,1.817 2.808,3.582 0,1.817 -1.277,3.06 -3.24,3.06 h -0.756 c -0.863,0 -1.565,-0.216 -1.961,-0.521 -0.703,-0.54 -1.027,-1.044 -1.027,-1.332 0,-0.054 0.037,-0.09 0.108,-0.126 l 1.134,-0.576 c 0.037,-0.018 0.072,-0.036 0.09,-0.036 0.072,0 0.108,0.054 0.162,0.126 0.414,0.559 0.666,1.026 1.494,1.026 h 0.756 c 0.883,0 1.621,-0.721 1.621,-1.62 0,-1.026 -0.774,-1.477 -2.179,-2.124 -1.926,-0.9 -2.97,-1.62 -2.97,-3.456 0,-1.836 1.277,-3.06 3.24,-3.06 h 0.287 c 1.765,0 2.988,1.133 2.988,1.817 0,0.054 -0.035,0.108 -0.107,0.144 l -1.152,0.576 c -0.036,0.019 -0.072,0.019 -0.09,0.019 -0.072,0 -0.09,-0.036 -0.145,-0.108 -0.414,-0.558 -0.72,-1.008 -1.494,-1.008 h -0.287 c -0.883,-10e-4 -1.621,0.701 -1.621,1.619 z"
   inkscape:connector-curvature="0"
   style="fill:#ffffff" />

	<path
   id="path3128"
   d="m 135.593,182.684 h -1.261 c -0.126,0 -0.18,-0.054 -0.18,-0.18 v -10.98 c 0,-0.126 0.054,-0.18 0.18,-0.18 h 1.261 c 0.107,0 0.18,0.054 0.18,0.18 v 10.98 c 0,0.126 -0.055,0.18 -0.18,0.18 z"
   inkscape:connector-curvature="0"
   style="fill:#ffffff" />

	<path
   id="path3130"
   d="m 146.105,172.783 h -2.07 c -0.126,0 -0.18,0.055 -0.18,0.18 v 9.541 c 0,0.126 -0.055,0.18 -0.18,0.18 h -1.261 c -0.126,0 -0.18,-0.054 -0.18,-0.18 v -9.541 c 0,-0.125 -0.054,-0.18 -0.181,-0.18 h -2.069 c -0.126,0 -0.181,-0.054 -0.181,-0.18 v -1.08 c 0,-0.126 0.055,-0.18 0.181,-0.18 h 6.12 c 0.126,0 0.18,0.054 0.18,0.18 v 1.08 c 0.001,0.126 -0.053,0.18 -0.179,0.18 z"
   inkscape:connector-curvature="0"
   style="fill:#ffffff" />

	<path
   id="path3132"
   d="m 156.814,182.684 h -6.119 c -0.127,0 -0.18,-0.054 -0.18,-0.18 v -10.98 c 0,-0.126 0.053,-0.18 0.18,-0.18 h 6.119 c 0.109,0 0.181,0.054 0.181,0.18 v 1.08 c 0,0.126 -0.054,0.18 -0.181,0.18 h -4.5 c -0.125,0 -0.18,0.055 -0.18,0.18 v 3.061 c 0,0.126 0.055,0.18 0.18,0.18 h 3.69 c 0.126,0 0.181,0.055 0.181,0.181 v 1.08 c 0,0.126 -0.055,0.18 -0.181,0.18 h -3.69 c -0.125,0 -0.18,0.054 -0.18,0.18 v 3.24 c 0,0.126 0.055,0.18 0.18,0.18 h 4.5 c 0.109,0 0.181,0.055 0.181,0.181 v 1.08 c 0,0.123 -0.054,0.177 -0.181,0.177 z m -2.879,-12.367 -0.127,0.054 h -0.773 c -0.107,0 -0.18,-0.072 -0.18,-0.144 0,-0.036 0,-0.072 0.035,-0.126 l 1.477,-2.25 0.145,-0.09 h 1.584 c 0.125,0 0.197,0.072 0.197,0.162 0,0.054 -0.018,0.09 -0.072,0.144 l -2.286,2.25 z"
   inkscape:connector-curvature="0"
   style="fill:#ffffff" />

	<path
   id="path3134"
   d="m 66.292,204.184 h -6.12 c -0.126,0 -0.18,-0.054 -0.18,-0.18 v -10.98 c 0,-0.126 0.054,-0.18 0.18,-0.18 h 6.12 c 0.108,0 0.18,0.054 0.18,0.18 v 1.08 c 0,0.126 -0.054,0.18 -0.18,0.18 h -4.5 c -0.126,0 -0.18,0.055 -0.18,0.181 v 3.06 c 0,0.126 0.054,0.18 0.18,0.18 h 3.69 c 0.126,0 0.18,0.055 0.18,0.181 v 1.08 c 0,0.126 -0.054,0.18 -0.18,0.18 h -3.69 c -0.126,0 -0.18,0.054 -0.18,0.18 v 3.24 c 0,0.126 0.054,0.18 0.18,0.18 h 4.5 c 0.108,0 0.18,0.055 0.18,0.181 v 1.08 c 0,0.123 -0.054,0.177 -0.18,0.177 z"
   inkscape:connector-curvature="0"
   style="fill:#ffffff" />

	<path
   id="path3136"
   d="m 72.932,204.363 h -0.54 c -1.962,0 -3.24,-1.224 -3.24,-3.06 v -8.28 c 0,-0.126 0.054,-0.18 0.18,-0.18 h 1.26 c 0.108,0 0.18,0.054 0.18,0.18 v 8.28 c 0,0.899 0.72,1.62 1.62,1.62 h 0.54 c 0.9,0 1.62,-0.721 1.62,-1.62 v -8.28 c 0,-0.126 0.054,-0.18 0.18,-0.18 h 1.26 c 0.108,0 0.18,0.054 0.18,0.18 v 8.28 c 0,1.837 -1.278,3.06 -3.24,3.06 z"
   inkscape:connector-curvature="0"
   style="fill:#ffffff" />

	<path
   id="path3138"
   d="m 86.81,204.04 c 0,0.09 -0.072,0.144 -0.18,0.144 h -1.386 l -0.162,-0.126 -1.674,-4.806 -0.144,-0.108 h -1.782 c -0.126,0 -0.18,0.054 -0.18,0.18 v 4.681 c 0,0.126 -0.054,0.18 -0.18,0.18 h -1.26 c -0.126,0 -0.18,-0.054 -0.18,-0.18 v -10.98 c 0,-0.126 0.054,-0.18 0.18,-0.18 h 3.6 c 1.98,0 3.24,1.26 3.24,3.24 v 0.18 c 0,0.63 -0.342,1.404 -1.026,2.052 -0.324,0.306 -0.648,0.36 -0.648,0.54 0,0.019 0,0.036 0.018,0.054 l 1.746,5.04 c 0.018,0.034 0.018,0.053 0.018,0.089 z m -1.728,-8.137 c 0,-0.899 -0.72,-1.62 -1.62,-1.62 h -1.98 c -0.126,0 -0.18,0.055 -0.18,0.181 v 3.06 c 0,0.126 0.054,0.18 0.18,0.18 h 1.98 c 0.9,0 1.62,-0.72 1.62,-1.619 v -0.182 z"
   inkscape:connector-curvature="0"
   style="fill:#ffffff" />

	<path
   id="path3140"
   d="m 93.162,204.363 h -0.54 c -1.962,0 -3.24,-1.224 -3.24,-3.06 v -5.58 c 0,-1.836 1.278,-3.061 3.24,-3.061 h 0.54 c 1.962,0 3.24,1.225 3.24,3.061 v 5.58 c 0,1.837 -1.278,3.06 -3.24,3.06 z m 1.62,-8.639 c 0,-0.9 -0.72,-1.62 -1.62,-1.62 h -0.54 c -0.9,0 -1.62,0.72 -1.62,1.62 v 5.58 c 0,0.899 0.72,1.62 1.62,1.62 h 0.54 c 0.9,0 1.62,-0.721 1.62,-1.62 v -5.58 z"
   inkscape:connector-curvature="0"
   style="fill:#ffffff" />

	<path
   id="path3142"
   d="m 106.501,196.084 c 0,1.8 -1.296,3.06 -3.24,3.06 h -1.98 c -0.126,0 -0.18,0.054 -0.18,0.18 v 4.681 c 0,0.126 -0.054,0.18 -0.18,0.18 h -1.26 c -0.126,0 -0.18,-0.054 -0.18,-0.18 v -10.98 c 0,-0.126 0.054,-0.18 0.18,-0.18 h 3.6 c 1.98,-0.001 3.24,1.259 3.24,3.239 z m -1.62,-0.181 c 0,-0.899 -0.72,-1.62 -1.62,-1.62 h -1.98 c -0.126,0 -0.18,0.055 -0.18,0.181 v 3.06 c 0,0.126 0.054,0.18 0.18,0.18 h 1.98 c 0.9,0 1.62,-0.72 1.62,-1.619 v -0.182 z"
   inkscape:connector-curvature="0"
   style="fill:#ffffff" />

	<path
   id="path3144"
   d="m 115.591,204.184 h -6.121 c -0.125,0 -0.18,-0.054 -0.18,-0.18 v -10.98 c 0,-0.126 0.055,-0.18 0.18,-0.18 h 6.121 c 0.107,0 0.18,0.054 0.18,0.18 v 1.08 c 0,0.126 -0.055,0.18 -0.18,0.18 h -4.5 c -0.127,0 -0.181,0.055 -0.181,0.181 v 3.06 c 0,0.126 0.054,0.18 0.181,0.18 h 3.689 c 0.126,0 0.18,0.055 0.18,0.181 v 1.08 c 0,0.126 -0.054,0.18 -0.18,0.18 h -3.689 c -0.127,0 -0.181,0.054 -0.181,0.18 v 3.24 c 0,0.126 0.054,0.18 0.181,0.18 h 4.5 c 0.107,0 0.18,0.055 0.18,0.181 v 1.08 c 0,0.123 -0.055,0.177 -0.18,0.177 z m -2.881,-12.367 -0.125,0.054 h -0.775 c -0.107,0 -0.18,-0.071 -0.18,-0.144 0,-0.036 0,-0.072 0.036,-0.126 l 1.476,-2.25 0.145,-0.09 h 1.584 c 0.126,0 0.198,0.071 0.198,0.162 0,0.054 -0.019,0.09 -0.072,0.144 l -2.287,2.25 z"
   inkscape:connector-curvature="0"
   style="fill:#ffffff" />

	<path
   id="path3146"
   d="m 125.31,204.184 h -6.119 c -0.127,0 -0.18,-0.054 -0.18,-0.18 v -10.98 c 0,-0.126 0.053,-0.18 0.18,-0.18 h 6.119 c 0.108,0 0.181,0.054 0.181,0.18 v 1.08 c 0,0.126 -0.054,0.18 -0.181,0.18 h -4.5 c -0.125,0 -0.18,0.055 -0.18,0.181 v 3.06 c 0,0.126 0.055,0.18 0.18,0.18 h 3.69 c 0.126,0 0.181,0.055 0.181,0.181 v 1.08 c 0,0.126 -0.055,0.18 -0.181,0.18 h -3.69 c -0.125,0 -0.18,0.054 -0.18,0.18 v 3.24 c 0,0.126 0.055,0.18 0.18,0.18 h 4.5 c 0.108,0 0.181,0.055 0.181,0.181 v 1.08 c 0,0.123 -0.054,0.177 -0.181,0.177 z"
   inkscape:connector-curvature="0"
   style="fill:#ffffff" />

	<path
   id="path3148"
   d="m 135.841,204.184 h -1.152 l -0.162,-0.09 -4.284,-8.082 0.108,7.992 c 0,0.126 -0.055,0.18 -0.181,0.18 h -1.26 c -0.126,0 -0.181,-0.054 -0.181,-0.18 v -10.98 c 0,-0.126 0.055,-0.18 0.181,-0.18 h 1.151 l 0.162,0.09 4.267,8.064 -0.091,-7.975 c 0,-0.126 0.055,-0.18 0.181,-0.18 h 1.261 c 0.125,0 0.18,0.054 0.18,0.18 v 10.98 c 0,0.127 -0.055,0.181 -0.18,0.181 z"
   inkscape:connector-curvature="0"
   style="fill:#ffffff" />

	<path
   id="path3150"
   d="m 146.911,204.184 h -1.152 l -0.161,-0.09 -4.285,-8.082 0.108,7.992 c 0,0.126 -0.054,0.18 -0.181,0.18 h -1.26 c -0.125,0 -0.18,-0.054 -0.18,-0.18 v -10.98 c 0,-0.126 0.055,-0.18 0.18,-0.18 h 1.152 l 0.162,0.09 4.266,8.064 -0.09,-7.975 c 0,-0.126 0.055,-0.18 0.18,-0.18 h 1.261 c 0.126,0 0.18,0.054 0.18,0.18 v 10.98 c -0.001,0.127 -0.054,0.181 -0.18,0.181 z"
   inkscape:connector-curvature="0"
   style="fill:#ffffff" />

	<path
   id="path3152"
   d="m 157.17,204.184 h -6.12 c -0.126,0 -0.18,-0.054 -0.18,-0.18 v -10.98 c 0,-0.126 0.054,-0.18 0.18,-0.18 h 6.12 c 0.108,0 0.18,0.054 0.18,0.18 v 1.08 c 0,0.126 -0.054,0.18 -0.18,0.18 h -4.5 c -0.126,0 -0.181,0.055 -0.181,0.181 v 3.06 c 0,0.126 0.055,0.18 0.181,0.18 h 3.69 c 0.125,0 0.18,0.055 0.18,0.181 v 1.08 c 0,0.126 -0.055,0.18 -0.18,0.18 h -3.69 c -0.126,0 -0.181,0.054 -0.181,0.18 v 3.24 c 0,0.126 0.055,0.18 0.181,0.18 h 4.5 c 0.108,0 0.18,0.055 0.18,0.181 v 1.08 c 0,0.123 -0.054,0.177 -0.18,0.177 z"
   inkscape:connector-curvature="0"
   style="fill:#ffffff" />

	<path
   id="path3154"
   d="m 63.772,225.684 h -3.6 c -0.126,0 -0.18,-0.054 -0.18,-0.18 v -10.98 c 0,-0.126 0.054,-0.18 0.18,-0.18 h 3.6 c 1.98,0 3.24,1.26 3.24,3.24 v 4.859 c 0,1.998 -1.242,3.241 -3.24,3.241 z m 1.62,-8.281 c 0,-0.899 -0.72,-1.62 -1.62,-1.62 h -1.98 c -0.126,0 -0.18,0.055 -0.18,0.181 v 8.1 c 0,0.126 0.054,0.18 0.18,0.18 h 1.98 c 0.9,0 1.62,-0.737 1.62,-1.619 v -5.222 z"
   inkscape:connector-curvature="0"
   style="fill:#ffffff" />

	<path
   id="path3156"
   d="m 76.352,225.684 h -6.12 c -0.126,0 -0.18,-0.054 -0.18,-0.18 v -10.98 c 0,-0.126 0.054,-0.18 0.18,-0.18 h 6.12 c 0.108,0 0.18,0.054 0.18,0.18 v 1.08 c 0,0.126 -0.054,0.18 -0.18,0.18 h -4.5 c -0.126,0 -0.18,0.055 -0.18,0.181 v 3.06 c 0,0.126 0.054,0.18 0.18,0.18 h 3.69 c 0.126,0 0.18,0.055 0.18,0.181 v 1.08 c 0,0.126 -0.054,0.18 -0.18,0.18 h -3.69 c -0.126,0 -0.18,0.054 -0.18,0.18 v 3.24 c 0,0.126 0.054,0.18 0.18,0.18 h 4.5 c 0.108,0 0.18,0.055 0.18,0.181 v 1.08 c 0,0.123 -0.054,0.177 -0.18,0.177 z"
   inkscape:connector-curvature="0"
   style="fill:#ffffff" />

	<path
   id="path3158"
   d="m 87.854,225.684 h -3.6 c -0.126,0 -0.18,-0.054 -0.18,-0.18 v -10.98 c 0,-0.126 0.054,-0.18 0.18,-0.18 h 3.6 c 1.98,0 3.24,1.26 3.24,3.24 v 0.18 c 0,0.432 -0.18,0.936 -0.558,1.458 -0.306,0.432 -0.666,0.594 -0.666,0.72 0,0.108 0.36,0.306 0.666,0.774 0.378,0.558 0.558,1.062 0.558,1.494 v 0.27 c -10e-4,1.98 -1.242,3.204 -3.24,3.204 z m 1.62,-8.281 c 0,-0.899 -0.72,-1.62 -1.62,-1.62 h -1.98 c -0.126,0 -0.18,0.055 -0.18,0.181 v 3.06 c 0,0.126 0.054,0.18 0.18,0.18 h 1.98 c 0.9,0 1.62,-0.72 1.62,-1.619 v -0.182 z m 0,4.861 c 0,-0.882 -0.72,-1.62 -1.62,-1.62 h -1.98 c -0.126,0 -0.18,0.054 -0.18,0.18 v 3.24 c 0,0.126 0.054,0.18 0.18,0.18 h 1.98 c 0.9,0 1.62,-0.737 1.62,-1.619 v -0.361 z"
   inkscape:connector-curvature="0"
   style="fill:#ffffff" />

	<path
   id="path3160"
   d="m 101.101,225.54 c 0,0.09 -0.072,0.144 -0.18,0.144 h -1.386 l -0.162,-0.126 -1.674,-4.806 -0.144,-0.108 h -1.782 c -0.126,0 -0.18,0.054 -0.18,0.18 v 4.681 c 0,0.126 -0.054,0.18 -0.18,0.18 h -1.26 c -0.126,0 -0.18,-0.054 -0.18,-0.18 v -10.98 c 0,-0.126 0.054,-0.18 0.18,-0.18 h 3.6 c 1.98,0 3.24,1.26 3.24,3.24 v 0.18 c 0,0.63 -0.342,1.404 -1.026,2.052 -0.324,0.306 -0.648,0.36 -0.648,0.54 0,0.019 0,0.036 0.018,0.054 l 1.746,5.04 c 0.018,0.034 0.018,0.053 0.018,0.089 z m -1.728,-8.137 c 0,-0.899 -0.72,-1.62 -1.62,-1.62 h -1.98 c -0.126,0 -0.18,0.055 -0.18,0.181 v 3.06 c 0,0.126 0.054,0.18 0.18,0.18 h 1.98 c 0.9,0 1.62,-0.72 1.62,-1.619 v -0.182 z"
   inkscape:connector-curvature="0"
   style="fill:#ffffff" />

	<path
   id="path3162"
   d="m 110.533,225.684 h -6.12 c -0.126,0 -0.18,-0.054 -0.18,-0.18 v -10.98 c 0,-0.126 0.054,-0.18 0.18,-0.18 h 6.12 c 0.107,0 0.18,0.054 0.18,0.18 v 1.08 c 0,0.126 -0.054,0.18 -0.18,0.18 h -4.5 c -0.126,0 -0.18,0.055 -0.18,0.181 v 3.06 c 0,0.126 0.054,0.18 0.18,0.18 h 3.689 c 0.127,0 0.181,0.055 0.181,0.181 v 1.08 c 0,0.126 -0.054,0.18 -0.181,0.18 h -3.689 c -0.126,0 -0.18,0.054 -0.18,0.18 v 3.24 c 0,0.126 0.054,0.18 0.18,0.18 h 4.5 c 0.107,0 0.18,0.055 0.18,0.181 v 1.08 c -10e-4,0.123 -0.054,0.177 -0.18,0.177 z"
   inkscape:connector-curvature="0"
   style="fill:#ffffff" />

	<path
   id="path3164"
   d="m 119.263,215.783 h -2.07 c -0.127,0 -0.18,0.055 -0.18,0.181 v 9.54 c 0,0.126 -0.055,0.18 -0.181,0.18 h -1.26 c -0.126,0 -0.181,-0.054 -0.181,-0.18 v -9.54 c 0,-0.126 -0.054,-0.181 -0.18,-0.181 h -2.07 c -0.125,0 -0.18,-0.054 -0.18,-0.18 v -1.08 c 0,-0.126 0.055,-0.18 0.18,-0.18 h 6.121 c 0.125,0 0.18,0.054 0.18,0.18 v 1.08 c 0.001,0.126 -0.054,0.18 -0.179,0.18 z"
   inkscape:connector-curvature="0"
   style="fill:#ffffff" />

	<path
   id="path3166"
   d="m 128.082,225.521 c 0,0.108 -0.072,0.162 -0.198,0.162 h -1.351 c -0.09,0 -0.162,-0.036 -0.18,-0.126 l -0.666,-2.376 c -0.018,-0.09 -0.072,-0.108 -0.18,-0.108 h -2.916 c -0.108,0 -0.162,0.019 -0.18,0.108 l -0.666,2.376 c -0.019,0.09 -0.09,0.126 -0.181,0.126 h -1.35 c -0.126,0 -0.198,-0.054 -0.198,-0.162 0,-0.018 0.018,-0.036 0.018,-0.072 l 3.349,-10.979 c 0.019,-0.09 0.071,-0.126 0.18,-0.126 h 0.972 c 0.09,0 0.145,0.036 0.181,0.126 l 3.348,10.979 c -0.001,0.036 0.018,0.055 0.018,0.072 z m -3.781,-7.505 c -0.054,-0.18 -0.126,-0.45 -0.216,-0.792 h -0.072 l -0.216,0.81 -0.882,3.366 c 0,0.036 -0.019,0.054 -0.019,0.072 0,0.107 0.072,0.162 0.198,0.162 h 1.891 c 0.125,0 0.197,-0.055 0.197,-0.162 0,-0.019 -0.018,-0.054 -0.018,-0.072 l -0.863,-3.384 z"
   inkscape:connector-curvature="0"
   style="fill:#ffffff" />

	<path
   id="path3168"
   d="m 137.154,215.981 c 0,0.054 -0.037,0.108 -0.108,0.145 l -1.151,0.575 c -0.037,0.019 -0.072,0.019 -0.091,0.019 -0.071,0 -0.09,-0.036 -0.144,-0.108 -0.414,-0.558 -0.721,-1.008 -1.494,-1.008 h -0.864 c -0.899,0 -1.62,0.72 -1.62,1.62 v 5.58 c 0,0.899 0.721,1.62 1.62,1.62 h 0.54 c 0.9,0 1.62,-0.721 1.62,-1.62 v -1.17 c 0,-0.108 -0.072,-0.181 -0.181,-0.181 h -1.799 c -0.127,0 -0.181,-0.054 -0.181,-0.18 v -1.08 c 0,-0.126 0.054,-0.18 0.181,-0.18 h 3.42 c 0.125,0 0.18,0.054 0.18,0.18 v 2.61 c 0,1.836 -1.278,3.06 -3.24,3.06 h -0.54 c -1.962,0 -3.239,-1.224 -3.239,-3.06 v -5.58 c 0,-1.836 1.277,-3.061 3.239,-3.061 h 0.864 c 1.763,0.001 2.988,1.117 2.988,1.819 z"
   inkscape:connector-curvature="0"
   style="fill:#ffffff" />

	<path
   id="path3170"
   d="m 147.108,225.684 h -1.151 l -0.162,-0.09 -4.285,-8.082 0.109,7.992 c 0,0.126 -0.055,0.18 -0.181,0.18 h -1.261 c -0.125,0 -0.18,-0.054 -0.18,-0.18 v -10.98 c 0,-0.126 0.055,-0.18 0.18,-0.18 h 1.152 l 0.162,0.09 4.266,8.064 -0.09,-7.975 c 0,-0.126 0.055,-0.18 0.181,-0.18 h 1.26 c 0.126,0 0.181,0.054 0.181,0.18 v 10.98 c 0,0.127 -0.055,0.181 -0.181,0.181 z"
   inkscape:connector-curvature="0"
   style="fill:#ffffff" />

	<path
   id="path3172"
   d="m 157.368,225.684 h -6.12 c -0.126,0 -0.18,-0.054 -0.18,-0.18 v -10.98 c 0,-0.126 0.054,-0.18 0.18,-0.18 h 6.12 c 0.108,0 0.181,0.054 0.181,0.18 v 1.08 c 0,0.126 -0.055,0.18 -0.181,0.18 h -4.5 c -0.126,0 -0.18,0.055 -0.18,0.181 v 3.06 c 0,0.126 0.054,0.18 0.18,0.18 h 3.69 c 0.126,0 0.18,0.055 0.18,0.181 v 1.08 c 0,0.126 -0.054,0.18 -0.18,0.18 h -3.69 c -0.126,0 -0.18,0.054 -0.18,0.18 v 3.24 c 0,0.126 0.054,0.18 0.18,0.18 h 4.5 c 0.108,0 0.181,0.055 0.181,0.181 v 1.08 c -0.001,0.123 -0.055,0.177 -0.181,0.177 z"
   inkscape:connector-curvature="0"
   style="fill:#ffffff" />

</g>
      <g
         id="g3174"
         style="fill:#ffffff">
	<g
   id="g3176"
   style="fill:#ffffff">
		<path
   id="path3178"
   d="m 59.716,110.337 c -4.856,0 -6.799,-4.163 -5.967,-9.712 l 0.278,-1.11 c -4.024,6.66 -10.129,11.378 -16.234,11.378 -9.296,0 -11.933,-9.019 -9.852,-20.813 L 31.41,71.21 c 0.555,-3.33 0.277,-5.828 -1.526,-5.828 -1.665,0 -4.579,2.081 -5.55,3.191 v -3.33 c 2.636,-2.775 6.382,-4.718 9.019,-4.718 4.856,0 6.938,4.024 5.966,9.574 L 35.85,89.386 c -1.665,9.019 -0.694,14.847 5.966,14.847 4.579,0 12.488,-6.799 15.124,-21.229 L 60.548,62.33 h 7.77 l -6.521,37.325 c -0.555,3.191 -0.416,5.688 1.526,5.688 1.526,0 4.44,-2.081 5.55,-3.052 v 3.191 c -2.775,2.774 -6.66,4.855 -9.157,4.855 z"
   inkscape:connector-curvature="0"
   style="fill:#ffffff" />

	</g>

	<g
   id="g3180"
   style="fill:#ffffff">
		<path
   id="path3182"
   d="m 134.494,104.066 c -6.674,8.615 -14.682,11.77 -25.236,11.77 -17.836,0 -28.756,-13.347 -28.756,-29.848 0,-17.593 12.376,-29.848 29.12,-29.848 16.016,0 26.936,10.92 26.936,29.726 V 88.9 H 90.693 c 0.728,9.828 8.25,18.2 18.564,18.2 8.129,0 13.588,-2.912 18.078,-8.615 l 7.159,5.581 z m -8.129,-23.174 c -0.364,-9.585 -6.674,-16.016 -17.107,-16.016 -10.435,0 -17.351,6.431 -18.564,16.016 h 35.671 z"
   inkscape:connector-curvature="0"
   style="fill:#ffffff" />

	</g>

	<g
   id="g3184"
   style="fill:#ffffff">
		<path
   id="path3186"
   d="m 153.785,113.144 v -54.86 h 11.369 V 76.29 h 22.738 v 36.854 h -34.107 z m 22.738,-25.485 h -11.369 v 14.116 h 11.369 V 87.659 z"
   inkscape:connector-curvature="0"
   style="fill:#ffffff" />

	</g>

	<path
   id="path3188"
   d="m 62.403,54.041 c 10.52,-15.135 27.751,-24.17 46.094,-24.17 18.297,0 35.504,9.001 46.028,24.078 l 3.697,-2.563 C 146.854,35.096 128.265,25.37 108.496,25.37 c -19.816,0 -38.43,9.761 -49.792,26.11 l 3.699,2.561 z m 92.251,63.791 c -10.514,15.19 -27.77,24.258 -46.156,24.258 -18.434,0 -35.713,-9.104 -46.223,-24.351 l -3.701,2.557 c 11.353,16.464 30.016,26.294 49.923,26.294 19.861,0 38.498,-9.795 49.856,-26.2 l -3.699,-2.558 z"
   inkscape:connector-curvature="0"
   style="fill:#ffffff" />

</g>
    </g>
  </g>
</svg>
